<?xml version="1.0" standalone="no"?>
<!DOCTYPE svg PUBLIC "-//W3C//DTD SVG 20010904//EN"
 "http://www.w3.org/TR/2001/REC-SVG-20010904/DTD/svg10.dtd">
<svg version="1.0" xmlns="http://www.w3.org/2000/svg"
 width="580.000000pt" height="400.000000pt" viewBox="0 0 580.000000 400.000000"
 preserveAspectRatio="xMidYMid meet">

<g transform="translate(0.000000,400.000000) scale(0.100000,-0.100000)"
fill="#000000" stroke="none">
<path d="M4307 2263 c-4 -3 -7 -15 -7 -25 0 -15 -8 -18 -45 -18 -34 0 -45 4
-45 16 0 23 -43 13 -54 -13 -7 -14 -22 -23 -46 -27 -19 -3 -44 -12 -55 -20
-27 -20 -11 -35 52 -51 l48 -12 3 -152 c2 -147 3 -151 27 -167 13 -8 36 -14
52 -12 26 3 28 7 31 51 2 27 -6 99 -18 160 -11 62 -22 119 -23 127 -1 9 10 17
33 21 19 3 47 9 62 13 24 7 31 2 72 -51 25 -32 46 -67 46 -78 0 -11 -23 -58
-50 -105 -28 -47 -50 -92 -50 -101 0 -17 39 -39 69 -39 10 0 25 8 33 18 28 31
78 141 78 170 0 16 9 37 21 48 11 10 18 26 16 36 -3 10 8 52 24 93 16 42 27
80 24 85 -14 22 -35 7 -66 -47 -18 -32 -34 -60 -35 -62 -2 -2 -40 30 -84 73
-75 71 -97 85 -113 69z"/>
<path d="M3340 2246 c-11 -15 -12 -36 -2 -134 7 -64 15 -154 18 -199 7 -92 16
-106 66 -101 23 2 37 11 48 30 14 26 13 31 -14 80 -21 40 -26 59 -19 76 8 22
9 21 56 -20 27 -25 68 -79 95 -128 47 -82 50 -85 83 -83 19 1 39 3 44 3 6 0
24 -2 41 -6 38 -7 82 26 120 92 37 62 31 135 -14 192 -44 56 -42 85 11 133
l42 40 -25 19 c-14 11 -33 20 -43 20 -49 0 -127 -71 -127 -117 0 -16 18 -44
55 -82 60 -63 67 -89 38 -138 -9 -16 -33 -41 -54 -56 l-37 -27 -59 62 c-32 34
-68 70 -80 81 l-23 20 40 34 c34 29 40 41 40 73 0 78 -82 134 -210 146 -64 5
-78 4 -90 -10z m178 -79 c32 -25 -6 -97 -52 -97 -19 0 -22 5 -22 33 1 17 -3
44 -7 59 -7 26 -6 27 30 21 21 -3 44 -10 51 -16z"/>
<path d="M1420 2240 c-13 -9 -13 -11 0 -20 8 -5 24 -10 35 -10 19 0 20 -6 17
-107 -4 -106 13 -248 29 -259 5 -3 9 -14 9 -24 0 -23 45 -60 74 -60 11 0 51
12 89 26 67 26 97 56 97 98 0 43 -25 120 -47 146 -16 20 -22 36 -18 50 4 12
-5 44 -21 81 -22 48 -35 65 -61 75 -37 16 -181 19 -203 4z m184 -52 c9 -12 16
-32 16 -44 0 -26 -46 -74 -71 -74 -15 0 -18 11 -21 70 l-3 70 32 0 c22 0 37
-7 47 -22z m76 -243 c0 -37 -4 -47 -30 -65 -47 -33 -72 -24 -86 33 l-12 48 46
23 c62 32 82 22 82 -39z"/>
<path d="M2274 2229 c-9 -16 5 -26 66 -46 47 -15 58 -24 75 -58 12 -25 19 -61
20 -97 0 -48 -5 -62 -31 -95 -59 -72 -69 -56 -94 142 -6 49 -16 95 -22 102
-13 16 -34 17 -44 2 -3 -6 -1 -90 6 -186 13 -166 15 -175 38 -194 29 -22 60
-25 68 -6 3 8 16 12 32 10 38 -5 112 66 137 130 l18 47 -35 78 c-20 42 -38 86
-42 98 -7 23 -33 37 -121 65 -71 22 -62 21 -71 8z"/>
<path d="M1809 2203 c-10 -12 -15 -60 -17 -183 l-4 -167 27 -22 c30 -23 60
-27 71 -9 14 22 3 152 -18 211 -15 45 -19 71 -14 109 9 67 -14 99 -45 61z"/>
<path d="M2589 2203 c-10 -12 -15 -60 -17 -183 l-4 -167 27 -22 c30 -23 60
-27 71 -9 14 22 3 152 -18 211 -15 45 -19 71 -14 109 9 67 -14 99 -45 61z"/>
<path d="M3959 2203 c-10 -12 -15 -60 -17 -183 l-4 -167 27 -22 c30 -23 60
-27 71 -9 14 22 3 152 -18 211 -15 45 -19 71 -14 109 9 67 -14 99 -45 61z"/>
<path d="M2944 2165 c-7 -19 -14 -40 -15 -47 0 -7 -13 -44 -28 -82 l-28 -68
-46 64 c-25 36 -56 86 -69 112 -17 36 -27 46 -43 44 -35 -5 -23 -73 33 -185
27 -54 55 -112 61 -129 17 -44 82 -69 117 -46 27 17 71 262 65 360 -2 25 -33
11 -47 -23z"/>
<path d="M3099 2171 c-31 -24 -70 -101 -76 -150 -7 -48 13 -87 71 -138 62 -55
115 -71 169 -52 49 16 56 35 27 72 -22 27 -63 36 -75 17 -19 -32 -115 20 -115
62 0 18 4 20 43 14 51 -7 70 3 65 35 -4 28 -42 37 -89 20 -26 -9 -29 -8 -29
10 0 11 11 31 25 45 24 24 26 24 61 9 20 -8 47 -15 60 -15 20 0 24 5 24 29 0
20 -8 35 -22 45 -32 22 -109 21 -139 -3z"/>
<path d="M1993 2145 c-51 -22 -75 -69 -70 -138 3 -49 8 -63 34 -89 26 -25 42
-32 85 -36 74 -6 121 15 147 67 26 51 27 97 1 139 -40 65 -123 90 -197 57z
m112 -41 c21 -8 45 -56 45 -90 0 -16 -12 -38 -34 -60 -28 -28 -37 -32 -62 -25
-28 7 -29 10 -29 70 0 56 3 65 28 87 32 27 30 26 52 18z"/>
</g>
</svg>
